 http://www.imdb.com/title/tt1038685/

Release Date: 2010 (USA)

Genre: Action | Sci-Fi

Plot: Live-action feature based on the video game "King of Fighters".

Cast:
Sean Faris ... Kyo Kusanagi
Will Yun Lee ... Iori Yagami
David Leitch ... Terry Bogard
Maggie Q ... Mai Shiranui
Ray Park ... Rugal Bernstein
Bernice Liu ... Vice
Monique Ganderton ... Mature
Sam Hargrave ... Ryo Sakazaki
Françoise Yip ... Chizuru
Doug Abrahams ... Mick O'Meara
Candus Churchill ... Berta - Nurse
Mike Dopud ... CIA Agent
Hiro Kanagawa ... Saisyu Kusanagi
Robin Nielsen ... Junior Agent
Scott Patey ... Scott Hana

Screens
 
http://www.imagebam.com/image/286bed95717033


File Name

The King Of Fighters 720p BRRip H264.mp4

File Size
Format : MPEG-4
Format profile : Base Media
Codec ID : isom
File size : 2.01 GiB
Duration : 1h 32mn
Overall bit rate : 3 093 Kbps

Video
ID : 1
Format : AVC
Format/Info : Advanced Video Codec
Format profile : High@L4.1
Format settings, CABAC : Yes
Format settings, ReFrames : 3 frames
Codec ID : avc1
Codec ID/Info : Advanced Video Coding
Duration : 1h 32mn
Bit rate mode : Variable
Bit rate : 2 449 Kbps
Maximum bit rate : 12.0 Mbps
Width : 1 280 pixels
Height : 720 pixels
Display aspect ratio : 16:9
Frame rate mode : Constant
Frame rate : 23.976 fps
Resolution : 24 bits
Colorimetry : 4:2:0
Scan type : Progressive
Bits/(Pixel*Frame) : 0.111
Stream size : 1.59 GiB (79%)

Audio #1
ID : 2
Format : AAC
Format/Info : Advanced Audio Codec
Format version : Version 4
Format profile : LC
Format settings, SBR : No
Codec ID : 40
Duration : 1h 32mn
Bit rate mode : Variable
Bit rate : 192 Kbps
Maximum bit rate : 198 Kbps
Channel(s) : 2 channels
Channel positions : L R
Sampling rate : 48.0 KHz
Resolution : 16 bits
Stream size : 127 MiB (6%)

Audio #2
ID : 3
Format : AAC
Format/Info : Advanced Audio Codec
Format version : Version 4
Format profile : LC
Format settings, SBR : No
Codec ID : 40
Duration : 1h 32mn
Bit rate mode : Variable
Bit rate : 448 Kbps
Maximum bit rate : 458 Kbps
Channel(s) : 6 channels
Channel positions : Front: L C R, Rear: L R, LFE
Sampling rate : 48.0 KHz
Resolution : 16 bits
Stream size : 297 MiB (14%)

English SRT : External

Language : English